<?xml version="1.0" encoding="UTF-8"?>
<svg id="Layer_2" data-name="Layer 2" xmlns="http://www.w3.org/2000/svg" viewBox="0 0 772.37 281.32">
  <defs>
    <style>
      .cls-1, .cls-2 {
        fill: #231f20;
      }

      .cls-1, .cls-3 {
        stroke-width: 0px;
      }

      .cls-2 {
        font-family: ArialMT, Arial;
        font-size: 79.04px;
        isolation: isolate;
      }

      .cls-3 {
        fill: #f6934c;
      }
    </style>
  </defs>
  <g id="Layer_1-2" data-name="Layer 1">
    <g>
      <g>
        <g>
          <g>
            <rect class="cls-1" x="253.3" y="30.2" width="37.78" height="12.62"/>
            <rect class="cls-1" x="265.81" width="12.65" height="151.98"/>
          </g>
          <g>
            <polygon class="cls-1" points="137.87 84.85 137.87 97.48 250.51 97.48 250.19 84.85 137.87 84.85"/>
            <path class="cls-1" d="m234.15,115.33c-8.38,14.45-24.02,24.17-41.95,24.17-26.76,0-48.45-21.64-48.45-48.34s21.69-48.34,48.45-48.34,48.45,21.64,48.45,48.34c0,2.14-.15,4.24-.42,6.31h12.75c.21-2.07.33-4.18.33-6.31,0-33.67-27.36-60.96-61.1-60.96s-61.1,27.29-61.1,60.96,27.36,60.96,61.1,60.96c22.61,0,42.34-12.27,52.91-30.49l-10.97-6.3Z"/>
          </g>
          <path class="cls-1" d="m413.25,91.17c0,33.67-27.36,60.96-61.1,60.96s-61.1-27.3-61.1-60.96,27.36-60.96,61.1-60.96c33.74-.01,61.1,27.29,61.1,60.96Zm-61.1-48.34c-26.76,0-48.45,21.64-48.45,48.34s21.69,48.34,48.45,48.34,48.45-21.64,48.45-48.34c-.01-26.7-21.7-48.34-48.45-48.34Z"/>
          <g>
            <path class="cls-1" d="m483.24,152.13c-33.74,0-61.1-27.29-61.1-60.96s27.36-60.96,61.1-60.96,61.1,27.3,61.1,60.96-27.36,60.96-61.1,60.96Zm48.45-60.96c0-26.7-21.69-48.34-48.45-48.34s-48.45,21.64-48.45,48.34,21.69,48.34,48.45,48.34,48.45-21.65,48.45-48.34Z"/>
            <rect class="cls-1" x="422.14" y="36.51" width="12.65" height="145.82"/>
          </g>
          <g>
            <path class="cls-1" d="m575.02,91.17c0-33.67,27.36-60.96,61.1-60.96s61.1,27.3,61.1,60.96-27.36,60.96-61.1,60.96-61.1-27.29-61.1-60.96Zm61.1,48.34c26.76,0,48.45-21.64,48.45-48.34s-21.69-48.34-48.45-48.34-48.45,21.64-48.45,48.34c.01,26.69,21.7,48.34,48.45,48.34Z"/>
            <rect class="cls-1" x="684.57" y="36.52" width="12.65" height="115.46"/>
          </g>
          <polygon class="cls-3" points="566.05 36.51 584.32 18.28 566.05 .04 566.05 36.51"/>
          <polygon class="cls-1" points="553.4 151.98 566.05 151.98 566.05 36.51 553.4 49.03 553.4 151.98"/>
          <g>
            <path class="cls-1" d="m122.2,91.17c0,33.67-27.36,60.96-61.1,60.96S0,124.83,0,91.17,27.36,30.21,61.1,30.21c33.75-.01,61.1,27.29,61.1,60.96Zm-61.1-48.34c-26.76,0-48.45,21.64-48.45,48.34s21.69,48.34,48.45,48.34,48.45-21.64,48.45-48.34-21.69-48.34-48.45-48.34Z"/>
            <rect class="cls-1" width="12.65" height="151.98"/>
          </g>
        </g>
        <g>
          <path class="cls-1" d="m728.01,5.14h-12.48v31.37h-5.91V5.13h-12.48V.05h30.88v5.09h-.01Z"/>
          <path class="cls-1" d="m772.37,36.51h-5.41V15.41l.39-10.05h-.06l-11.1,31.16h-4.92l-11.1-31.16h-.06l.44,10.05v21.1h-5.47V.05h8.78l7.35,21.1,2.54,8.67h.11l2.6-8.67L763.75.05h8.62v36.46h0Z"/>
        </g>
      </g>
      <text class="cls-2" transform="translate(455.42 255.65)"><tspan x="0" y="0">Limited</tspan></text>
    </g>
  </g>
</svg>