<?xml version="1.0" encoding="UTF-8"?>
<svg xmlns="http://www.w3.org/2000/svg" viewBox="0 0 1200 600" fill="#ffffff">
  <!-- North America -->
  <path d="M120,85 L125,75 L140,70 L160,65 L180,60 L200,55 L220,52 L240,55 L260,60 L275,58 L285,62 L290,70 L285,80 L275,85 L270,90 L265,95 L260,102 L255,110 L250,118 L248,125 L252,130 L258,128 L265,125 L270,120 L278,118 L285,120 L290,125 L292,132 L288,140 L282,145 L275,148 L268,152 L260,158 L255,165 L252,172 L250,180 L248,188 L245,195 L240,200 L235,205 L228,208 L220,210 L215,215 L210,222 L205,228 L198,232 L190,235 L182,238 L175,240 L170,245 L165,250 L158,252 L150,248 L142,240 L138,232 L135,225 L130,218 L122,215 L115,218 L108,222 L100,225 L95,220 L90,212 L88,205 L92,198 L98,192 L105,185 L108,178 L105,170 L100,162 L95,155 L92,148 L95,140 L100,132 L105,125 L108,118 L112,110 L115,102 L118,95 Z"/>

  <!-- Greenland -->
  <path d="M280,30 L295,28 L310,32 L320,38 L325,48 L320,58 L310,62 L298,60 L288,55 L282,45 L278,38 Z"/>

  <!-- Central America & Caribbean -->
  <path d="M175,240 L180,245 L188,250 L195,255 L200,260 L205,265 L210,268 L218,272 L225,275 L220,280 L212,282 L205,278 L198,272 L190,268 L185,262 L180,255 L175,248 Z"/>

  <!-- South America -->
  <path d="M225,275 L235,278 L245,285 L252,292 L258,300 L262,310 L268,320 L272,332 L275,345 L278,358 L280,370 L278,382 L275,395 L270,408 L265,418 L258,428 L252,438 L245,448 L238,455 L232,460 L228,465 L225,470 L222,475 L218,478 L215,480 L212,475 L215,465 L218,455 L220,445 L222,435 L218,425 L212,415 L208,405 L205,395 L202,385 L200,375 L198,365 L200,355 L205,345 L208,335 L210,325 L208,315 L205,305 L208,295 L212,285 L218,278 Z"/>

  <!-- Europe -->
  <path d="M468,55 L475,52 L485,50 L495,48 L505,50 L515,55 L525,58 L535,55 L540,60 L545,68 L550,75 L555,82 L558,90 L555,98 L548,105 L542,112 L538,118 L535,125 L530,130 L525,135 L518,138 L510,140 L502,138 L495,135 L488,132 L482,128 L478,122 L475,115 L472,108 L470,100 L468,92 L465,85 L462,78 L460,72 L462,65 L465,58 Z"/>

  <!-- Great Britain -->
  <path d="M448,70 L455,68 L458,72 L460,80 L458,88 L455,95 L450,100 L445,98 L442,92 L440,85 L442,78 L445,72 Z"/>

  <!-- Scandinavia -->
  <path d="M500,25 L508,22 L515,28 L520,35 L522,42 L518,50 L512,55 L505,52 L498,48 L495,42 L498,35 L502,28 Z"/>

  <!-- Africa -->
  <path d="M478,165 L488,160 L498,158 L508,160 L518,165 L528,170 L538,175 L545,182 L550,190 L555,200 L558,210 L560,220 L562,232 L560,245 L558,258 L555,270 L550,282 L545,292 L540,302 L535,312 L528,320 L520,328 L512,335 L505,340 L500,345 L495,348 L490,350 L485,348 L480,342 L475,335 L470,325 L468,315 L465,305 L462,295 L460,285 L458,275 L455,265 L452,255 L450,245 L448,235 L450,225 L455,215 L460,205 L465,195 L468,185 L472,175 Z"/>

  <!-- Madagascar -->
  <path d="M565,310 L570,305 L575,310 L578,320 L575,330 L570,338 L565,335 L562,325 L563,318 Z"/>

  <!-- Middle East -->
  <path d="M558,105 L568,100 L578,102 L588,108 L595,115 L600,122 L605,130 L608,138 L610,148 L608,155 L602,160 L595,162 L588,158 L580,155 L572,150 L565,145 L560,138 L558,130 L555,122 L555,115 Z"/>

  <!-- India -->
  <path d="M640,135 L650,130 L660,132 L670,138 L678,145 L685,155 L690,165 L692,175 L690,185 L685,195 L680,205 L675,215 L670,225 L665,232 L660,238 L655,240 L650,238 L645,232 L640,225 L638,218 L635,210 L632,200 L630,190 L628,180 L625,170 L622,160 L620,150 L625,142 L630,138 Z"/>

  <!-- Sri Lanka -->
  <path d="M668,245 L672,242 L675,248 L675,255 L672,260 L668,258 L665,252 Z"/>

  <!-- Central Asia / Russia -->
  <path d="M525,30 L545,25 L565,22 L585,20 L605,18 L625,20 L645,22 L665,20 L685,18 L705,20 L725,25 L745,22 L765,20 L785,22 L805,28 L820,35 L830,42 L835,52 L830,60 L820,65 L810,68 L800,72 L790,75 L780,78 L770,80 L760,82 L750,80 L740,78 L730,75 L720,72 L710,70 L700,72 L690,75 L680,78 L670,80 L660,82 L650,80 L640,78 L630,80 L620,82 L610,85 L600,88 L590,90 L580,88 L570,85 L560,82 L550,80 L540,75 L535,68 L530,60 L525,52 L522,42 L520,35 Z"/>

  <!-- China / East Asia -->
  <path d="M720,72 L735,70 L748,75 L758,82 L768,90 L775,98 L780,108 L782,118 L780,128 L775,138 L768,145 L760,150 L752,155 L745,160 L738,162 L730,160 L722,155 L715,148 L710,140 L705,132 L700,125 L698,118 L700,110 L705,102 L710,95 L715,88 L718,80 Z"/>

  <!-- Japan -->
  <path d="M808,90 L815,85 L820,88 L825,95 L828,105 L825,115 L820,122 L815,128 L810,125 L805,118 L802,110 L800,102 L802,95 Z"/>

  <!-- Korean Peninsula -->
  <path d="M790,88 L798,85 L802,90 L805,98 L802,108 L798,115 L792,118 L788,112 L785,105 L785,98 L788,92 Z"/>

  <!-- Southeast Asia -->
  <path d="M745,165 L755,162 L765,168 L772,175 L778,185 L780,195 L778,205 L772,212 L765,218 L758,222 L750,220 L742,215 L735,208 L730,200 L728,192 L730,182 L735,175 L740,168 Z"/>

  <!-- Indonesia -->
  <path d="M748,245 L760,242 L772,245 L782,248 L792,252 L802,255 L810,258 L818,262 L825,265 L820,272 L812,275 L802,272 L792,268 L782,265 L772,262 L762,258 L755,255 L748,252 Z"/>
  <path d="M828,265 L838,262 L848,265 L855,270 L852,278 L845,280 L838,278 L832,272 Z"/>

  <!-- Papua New Guinea -->
  <path d="M862,260 L872,255 L882,258 L888,265 L885,275 L878,280 L870,278 L865,272 L862,265 Z"/>

  <!-- Australia -->
  <path d="M810,310 L825,305 L842,302 L860,305 L878,310 L895,318 L908,328 L918,340 L922,355 L920,370 L915,385 L908,398 L898,408 L885,415 L870,418 L855,420 L840,418 L825,412 L812,405 L802,395 L795,382 L792,368 L790,355 L792,342 L798,330 L805,318 Z"/>

  <!-- New Zealand -->
  <path d="M942,398 L948,392 L952,398 L955,408 L952,418 L948,425 L942,428 L938,422 L935,412 L938,405 Z"/>
  <path d="M935,430 L940,428 L945,432 L945,440 L942,448 L938,445 L935,438 Z"/>

  <!-- Philippines -->
  <path d="M802,195 L808,190 L812,195 L815,205 L812,215 L808,222 L802,218 L798,210 L800,202 Z"/>

  <!-- Taiwan -->
  <path d="M795,155 L800,152 L802,158 L800,165 L795,168 L792,162 Z"/>
</svg>
